<svg data-v-423bf9ae="" xmlns="http://www.w3.org/2000/svg" viewBox="0 0 435 90" class="iconLeft"><defs><style>.cls-1{fill:#fff;}</style></defs><title>LUKUTEX</title><path class="cls-1" d="M42.44,0A42.45,42.45,0,1,0,84.89,42.44,42.44,42.44,0,0,0,42.44,0Zm-4,19.2V50.45a.93.93,0,0,0,.93.92H68.92a28.3,28.3,0,0,1-1.67,4.26,30,30,0,0,1-5.84,8.18c-.29.29-.58.57-.88.84H37.4A12.21,12.21,0,0,1,25.19,52.44V14.9A32.51,32.51,0,1,0,73.71,51.37h4.42A36.78,36.78,0,0,1,5.88,38.51,36.3,36.3,0,0,1,14,19.07,36.84,36.84,0,0,1,29.44,8V52.18a8.22,8.22,0,0,0,8.22,8.22H58.78a25.94,25.94,0,0,0,3.62-4.77H37.7a3.5,3.5,0,0,1-3.49-3.5V15.77a30.49,30.49,0,0,1,4.25-.87,30.93,30.93,0,0,1,4-.26h.79a31.67,31.67,0,0,1,4.26.41V42.35H74.95A32.54,32.54,0,0,0,34.21,11V6.59a37.54,37.54,0,0,1,8.23-.92A36.8,36.8,0,0,1,79,38.79a37.61,37.61,0,0,1-.06,7.8H77.62v0H44a.79.79,0,0,1-.79-.79V18.91A25.92,25.92,0,0,0,38.46,19.2Z"/><path class="cls-1" d="M124.88,55v6.12H96.68V23.27h7.91V55Z"/><path class="cls-1" d="M146,61.61a20.44,20.44,0,0,1-8.8-1.7,11.92,11.92,0,0,1-5.45-5,16.09,16.09,0,0,1-1.85-8V23.27h7.91v23q0,4.48,2.13,6.8t6.26,2.32A8.51,8.51,0,0,0,152.7,53Q155,50.56,155,46V23.27h7.91V46.51a15.75,15.75,0,0,1-2,8.16,12.93,12.93,0,0,1-5.78,5.16A21.31,21.31,0,0,1,146,61.61Z"/><path class="cls-1" d="M177.84,47.28V61.07h-7.91V23.27h7.91V40.42l17-17.14h9.23L188,39.26l17.47,21.81h-9.34L182.5,43.72Z"/><path class="cls-1" d="M225.32,61.61a20.44,20.44,0,0,1-8.8-1.7,11.92,11.92,0,0,1-5.45-5,16.09,16.09,0,0,1-1.85-8V23.27h7.91v23q0,4.48,2.13,6.8t6.26,2.32A8.51,8.51,0,0,0,232.05,53q2.28-2.43,2.28-7V23.27h7.91V46.51a15.75,15.75,0,0,1-2,8.16,12.93,12.93,0,0,1-5.78,5.16A21.31,21.31,0,0,1,225.32,61.61Z"/><path class="cls-1" d="M266.34,29.39V61.07h-7.91V29.39H246.22V23.27h32.35v6.12Z"/><path class="cls-1" d="M312.56,55v6.12H282.84V23.27h29.72v6.12H290.75v9.5h20.17V45H290.75V55Z"/><polygon class="cls-1" points="347.18 61.07 339.04 61.07 312.65 23.27 320.79 23.27 347.18 61.07"/><polygon class="cls-1" points="312.65 61.07 320.79 61.07 347.18 23.27 339.04 23.27 312.65 61.07"/></svg>