<svg width="24" height="24" viewBox="0 0 24 24" fill="none" xmlns="http://www.w3.org/2000/svg">
<path d="M4 0C1.78906 0 0 1.78906 0 4C0 6.82422 1.82812 8.73438 3.625 10.3125C4.875 11.4102 6.13281 12.4102 7.03125 13.5C7.04688 13.5195 7.04688 13.543 7.0625 13.5625C7.85938 15.5977 8.85938 17.2305 9.96875 18.1562C12.9961 21.4766 5.90625 21.0234 5.90625 24H18C18 21.0664 11.1562 21.4727 13.8438 18.3125C15.0469 17.4102 16.1211 15.6836 16.9688 13.5C17.8672 12.4102 19.125 11.4102 20.375 10.3125C22.1719 8.73438 24 6.82422 24 4C24 1.78906 22.2109 0 20 0C18.5195 0 17.2539 0.804688 16.5625 2H7.4375C6.74609 0.804688 5.48047 0 4 0ZM4 2C4.37891 2 4.71094 2.09766 5 2.25C5.01953 4.70703 5.34375 7.25781 5.875 9.59375C5.5625 9.32812 5.23438 9.07422 4.9375 8.8125C3.23438 7.31641 2 5.97656 2 4C2 2.80859 2.80859 2 4 2ZM20 2C21.1914 2 22 2.80859 22 4C22 5.97656 20.7656 7.31641 19.0625 8.8125C18.7656 9.07422 18.4375 9.32812 18.125 9.59375C18.6562 7.25781 18.9805 4.70703 19 2.25C19.2891 2.09766 19.6211 2 20 2ZM11.4062 6H13V13H11V9H9.5V7.6875C10.6992 7.6875 11.3047 6.5 11.4062 6Z" fill="#E7E04F"/>
</svg>
